<svg xmlns="http://www.w3.org/2000/svg" viewBox="0 0 800 600" width="800" height="600">
	<defs>
		<clipPath clipPathUnits="userSpaceOnUse" id="cp1">
			<path d="M-350 -200L1150 -200L1150 800L-350 800Z" />
		</clipPath>
		<clipPath clipPathUnits="userSpaceOnUse" id="cp2">
			<path d="M-85.93 329.87C-85.93 487.67 43.92 617.52 201.72 617.52C359.52 617.52 489.37 487.67 489.37 329.87C489.37 294.94 483.01 260.3 470.6 227.65L201.72 329.87L-39.18 172.68C-69.69 219.42 -85.93 274.05 -85.93 329.87Z" />
		</clipPath>
	</defs>
	<style>
		tspan { white-space:pre }
		.shp0 { fill: #553ac7 } 
		.shp1 { fill: #3919a4 } 
		.shp2 { fill: #fece77 } 
		.shp3 { fill: #fb7880 } 
		.shp4 { fill: #fa505b } 
		.shp5 { fill: #ffc4ce } 
		.shp6 { fill: #ffffff } 
		.shp7 { fill: #ede9fd } 
		.shp8 { fill: #c5b8f8 } 
		.shp9 { fill: #e1dafc } 
		.shp10 { fill: #f8f7fe } 
		.shp11 { fill: #001552 } 
		.shp12 { fill: #feafab } 
		.shp13 { fill: #6e6e6e } 
		.shp14 { fill: #3717bd } 
		.shp15 { fill: #816dd6 } 
		.shp16 { fill: #fed3d1 } 
		.shp17 { fill: #fdb737 } 
	</style>
	<g id="Page 1" clip-path="url(#cp1)">
		<path id="Path 15" class="shp0" d="M413.72 301.87L682.6 199.65C695.01 232.3 701.37 266.94 701.37 301.87C701.37 459.67 571.52 589.52 413.72 589.52C255.92 589.52 126.07 459.67 126.07 301.87C126.07 246.05 142.31 191.42 172.82 144.68L413.72 301.87Z" />
		<g id="Mask" clip-path="url(#cp2)">
			<path id="Path 17" class="shp1" d="M737.57 441.48C638.86 456.23 435.58 459.68 283.52 449.18C131.47 438.68 88.22 418.2 186.93 403.45C285.64 388.69 488.93 385.25 640.98 395.75C793.04 406.25 836.28 426.72 737.57 441.48ZM615 550.52C605.78 558.71 545.19 563.13 479.66 560.38C414.13 557.63 368.48 548.75 377.7 540.56C386.92 532.36 447.51 527.95 513.04 530.7C578.57 533.45 624.22 542.32 615 550.52Z" />
		</g>
		<path id="Path 19" class="shp2" d="M342.24 262.81L311.07 38.92C306.66 36.18 302.1 33.69 297.38 31.43L331.1 273.7C335.03 270.27 338.74 266.64 342.24 262.81ZM358.63 241.22L332.74 55.22C328.26 51.14 323.5 47.31 318.53 43.84L348.05 256.06C351.9 251.38 355.41 246.41 358.63 241.22ZM325.05 278.74L290.2 28.24C285.87 26.46 281.44 24.87 276.89 23.5L313.55 286.96C317.52 284.41 321.36 281.67 325.05 278.74ZM295.54 296.88C299.56 295.01 303.49 292.99 307.31 290.78L269.86 21.57C265.6 20.49 261.26 19.61 256.85 18.94L295.54 296.88ZM373.56 209.15L355.88 82.01C351.31 75.25 346.21 68.84 340.59 62.9L364.07 231.72C367.83 224.58 371.03 217.04 373.56 209.15ZM199 21.42L239.21 310.26C243.4 310.12 247.58 309.79 251.7 309.3L211.28 18.92C207.13 19.57 203.03 20.41 199 21.42ZM217.92 18.02L258.32 308.35C262.48 307.67 266.59 306.79 270.62 305.75L230.45 17.19C226.24 17.27 222.07 17.56 217.92 18.02ZM237.2 17.18L277.11 303.91C281.2 302.67 285.22 301.24 289.17 299.63L249.96 18.03C245.69 17.55 241.43 17.26 237.2 17.18ZM89.15 142.52C77.42 222.61 132.85 297.05 212.97 308.77C219.5 309.73 226.03 310.25 232.45 310.31L192.5 23.19C139.49 38.93 97.69 84.17 89.15 142.52ZM379.21 184.98C383.79 153.7 378.13 123.26 364.74 97.1L377.97 192.18C378.44 189.79 378.86 187.4 379.21 184.98Z" />
		<path id="Path 20" class="shp3" d="M67.21 362.11L59.68 362.11L59.68 354.58L67.21 354.58L67.21 362.11ZM86.96 362.11L79.44 362.11L79.44 354.58L86.96 354.58L86.96 362.11ZM106.72 362.11L99.2 362.11L99.2 354.58L106.72 354.58L106.72 362.11ZM126.48 362.11L118.96 362.11L118.96 354.58L126.48 354.58L126.48 362.11ZM146.24 362.11L138.72 362.11L138.72 354.58L146.24 354.58L146.24 362.11ZM166 362.11L158.48 362.11L158.48 354.58L166 354.58L166 362.11ZM67.21 382.24L59.68 382.24L59.68 374.71L67.21 374.71L67.21 382.24ZM86.96 382.24L79.44 382.24L79.44 374.71L86.96 374.71L86.96 382.24ZM106.72 382.24L99.2 382.24L99.2 374.71L106.72 374.71L106.72 382.24ZM126.48 382.24L118.96 382.24L118.96 374.71L126.48 374.71L126.48 382.24ZM146.24 382.24L138.72 382.24L138.72 374.71L146.24 374.71L146.24 382.24ZM166 382.24L158.48 382.24L158.48 374.71L166 374.71L166 382.24ZM67.21 402.37L59.68 402.37L59.68 394.85L67.21 394.85L67.21 402.37ZM86.96 402.37L79.44 402.37L79.44 394.85L86.96 394.85L86.96 402.37ZM106.72 402.37L99.2 402.37L99.2 394.85L106.72 394.85L106.72 402.37ZM126.48 402.37L118.96 402.37L118.96 394.85L126.48 394.85L126.48 402.37ZM146.24 402.37L138.72 402.37L138.72 394.85L146.24 394.85L146.24 402.37ZM166 402.37L158.48 402.37L158.48 394.85L166 394.85L166 402.37ZM67.21 422.5L59.68 422.5L59.68 414.98L67.21 414.98L67.21 422.5ZM86.96 422.5L79.44 422.5L79.44 414.98L86.96 414.98L86.96 422.5ZM106.72 422.5L99.2 422.5L99.2 414.98L106.72 414.98L106.72 422.5ZM126.48 422.5L118.96 422.5L118.96 414.98L126.48 414.98L126.48 422.5ZM146.24 422.5L138.72 422.5L138.72 414.98L146.24 414.98L146.24 422.5ZM166 422.5L158.48 422.5L158.48 414.98L166 414.98L166 422.5ZM67.21 442.63L59.68 442.63L59.68 435.11L67.21 435.11L67.21 442.63ZM86.96 442.63L79.44 442.63L79.44 435.11L86.96 435.11L86.96 442.63ZM106.72 442.63L99.2 442.63L99.2 435.11L106.72 435.11L106.72 442.63ZM126.48 442.63L118.96 442.63L118.96 435.11L126.48 435.11L126.48 442.63ZM146.24 442.63L138.72 442.63L138.72 435.11L146.24 435.11L146.24 442.63ZM166 442.63L158.48 442.63L158.48 435.11L166 435.11L166 442.63ZM67.21 462.76L59.68 462.76L59.68 455.24L67.21 455.24L67.21 462.76ZM86.96 462.76L79.44 462.76L79.44 455.24L86.96 455.24L86.96 462.76ZM106.72 462.76L99.2 462.76L99.2 455.24L106.72 455.24L106.72 462.76ZM126.48 462.76L118.96 462.76L118.96 455.24L126.48 455.24L126.48 462.76ZM146.24 462.76L138.72 462.76L138.72 455.24L146.24 455.24L146.24 462.76ZM166 462.76L158.48 462.76L158.48 455.24L166 455.24L166 462.76Z" />
		<path id="Path 21" class="shp0" d="M599.94 92.48L592.41 92.48L592.41 84.96L599.94 84.96L599.94 92.48ZM619.7 92.48L612.17 92.48L612.17 84.96L619.7 84.96L619.7 92.48ZM639.46 92.48L631.93 92.48L631.93 84.96L639.46 84.96L639.46 92.48ZM659.22 92.48L651.69 92.48L651.69 84.96L659.22 84.96L659.22 92.48ZM678.98 92.48L671.45 92.48L671.45 84.96L678.98 84.96L678.98 92.48ZM698.74 92.48L691.21 92.48L691.21 84.96L698.74 84.96L698.74 92.48ZM599.94 112.62L592.41 112.62L592.41 105.09L599.94 105.09L599.94 112.62ZM619.7 112.62L612.17 112.62L612.17 105.09L619.7 105.09L619.7 112.62ZM639.46 112.62L631.93 112.62L631.93 105.09L639.46 105.09L639.46 112.62ZM659.22 112.62L651.69 112.62L651.69 105.09L659.22 105.09L659.22 112.62ZM678.98 112.62L671.45 112.62L671.45 105.09L678.98 105.09L678.98 112.62ZM698.74 112.62L691.21 112.62L691.21 105.09L698.74 105.09L698.74 112.62ZM599.94 132.75L592.41 132.75L592.41 125.22L599.94 125.22L599.94 132.75ZM619.7 132.75L612.17 132.75L612.17 125.22L619.7 125.22L619.7 132.75ZM639.46 132.75L631.93 132.75L631.93 125.22L639.46 125.22L639.46 132.75ZM659.22 132.75L651.69 132.75L651.69 125.22L659.22 125.22L659.22 132.75ZM678.98 132.75L671.45 132.75L671.45 125.22L678.98 125.22L678.98 132.75ZM698.74 132.75L691.21 132.75L691.21 125.22L698.74 125.22L698.74 132.75ZM599.94 152.88L592.41 152.88L592.41 145.35L599.94 145.35L599.94 152.88ZM619.7 152.88L612.17 152.88L612.17 145.35L619.7 145.35L619.7 152.88ZM639.46 152.88L631.93 152.88L631.93 145.35L639.46 145.35L639.46 152.88ZM659.22 152.88L651.69 152.88L651.69 145.35L659.22 145.35L659.22 152.88ZM678.98 152.88L671.45 152.88L671.45 145.35L678.98 145.35L678.98 152.88ZM698.74 152.88L691.21 152.88L691.21 145.35L698.74 145.35L698.74 152.88ZM599.94 173.01L592.41 173.01L592.41 165.48L599.94 165.48L599.94 173.01ZM619.7 173.01L612.17 173.01L612.17 165.48L619.7 165.48L619.7 173.01ZM639.46 173.01L631.93 173.01L631.93 165.48L639.46 165.48L639.46 173.01ZM659.22 173.01L651.69 173.01L651.69 165.48L659.22 165.48L659.22 173.01ZM678.98 173.01L671.45 173.01L671.45 165.48L678.98 165.48L678.98 173.01ZM698.74 173.01L691.21 173.01L691.21 165.48L698.74 165.48L698.74 173.01ZM599.94 193.14L592.41 193.14L592.41 185.61L599.94 185.61L599.94 193.14ZM619.7 193.14L612.17 193.14L612.17 185.61L619.7 185.61L619.7 193.14ZM639.46 193.14L631.93 193.14L631.93 185.61L639.46 185.61L639.46 193.14ZM659.22 193.14L651.69 193.14L651.69 185.61L659.22 185.61L659.22 193.14ZM678.98 193.14L671.45 193.14L671.45 185.61L678.98 185.61L678.98 193.14ZM698.74 193.14L691.21 193.14L691.21 185.61L698.74 185.61L698.74 193.14Z" />
		<path id="Path 22" fill-rule="evenodd" class="shp3" d="M663.22 252.92C663.22 267.15 651.68 278.69 637.44 278.69C623.2 278.69 611.66 267.15 611.66 252.92C611.66 238.68 623.2 227.14 637.44 227.14C651.68 227.14 663.22 238.68 663.22 252.92ZM615.66 252.92C615.66 264.92 625.43 274.69 637.44 274.69C649.45 274.69 659.22 264.92 659.22 252.92C659.22 240.91 649.45 231.14 637.44 231.14C625.43 231.14 615.66 240.91 615.66 252.92ZM252.67 537.86C252.67 543.96 251.31 549.74 248.89 554.92C248.03 556.78 247.03 558.56 245.89 560.26C238.63 571.12 226.29 578.26 212.27 578.26C189.95 578.26 171.87 560.16 171.87 537.86C171.87 515.54 189.95 497.46 212.27 497.46C221.89 497.46 230.71 500.82 237.65 506.46C239.25 507.72 240.75 509.14 242.13 510.66C248.69 517.84 252.67 527.38 252.67 537.86ZM613.87 78.11L599.21 138.39C598.55 141.03 596.31 142.99 593.59 143.25L280.63 173.27L262.11 175.05L231.47 177.99L211.05 179.95C208.88 180.16 206.94 179.28 205.65 177.83L205.65 177.83L205.64 177.81C205.52 177.68 205.43 177.52 205.33 177.38L195.15 163.22C192.21 162.17 190.27 159.04 191.07 155.72L199.97 118.61C200.58 116.09 202.65 114.18 205.22 113.78L593.53 53.9C596.05 53.51 598.31 54.65 599.65 56.5L599.69 56.48L612.8 72.79C613.87 74.24 614.35 76.14 613.87 78.11Z" />
		<path id="Path 23" class="shp4" d="M612.8 72.79L599.69 56.48L599.65 56.5C598.31 54.65 596.05 53.51 593.53 53.9L557.8 59.41L552.32 64.12L570.82 114.29L597.27 141.61C598.2 140.76 598.89 139.66 599.21 138.39L613.87 78.11C614.35 76.14 613.87 74.24 612.8 72.79Z" />
		<path id="Path 24" class="shp3" d="M191.07 155.72L199.97 118.61C200.58 116.09 202.65 114.18 205.22 113.78L593.53 53.9C598.03 53.2 601.79 57.3 600.72 61.73L586.05 122.02C585.41 124.66 583.16 126.61 580.45 126.87L197.9 163.58C193.53 164 190.04 159.99 191.07 155.72Z" />
		<path id="Path 25" class="shp5" d="M206.15 156.37C205.9 156.37 205.68 156.18 205.65 155.92C205.62 155.65 205.82 155.4 206.1 155.37L574.35 117.06C574.61 117.03 574.87 117.23 574.9 117.5C574.92 117.78 574.72 118.03 574.45 118.05L206.2 156.37C206.19 156.37 206.17 156.37 206.15 156.37Z" />
		<path id="Path 26" class="shp6" d="M453.89 81.71L594.16 60.93L583.96 96.33L453.89 81.71Z" />
		<path id="Path 27" class="shp4" d="M345.21 109.75C344.55 112.73 342.1 114.72 339.75 114.2C337.4 113.68 336.02 110.84 336.68 107.86C337.34 104.88 339.78 102.89 342.14 103.41C344.49 103.93 345.87 106.77 345.21 109.75Z" />
		<path id="Path 28" class="shp7" d="M364.22 89.28L358.28 90.18C357.4 83.96 353 79.24 347.72 79.24C341.8 79.24 336.98 85.18 336.98 92.5C336.98 92.82 336.98 93.14 337.04 93.46C337.22 97.22 338.72 100.66 341.2 103C342.4 104.14 342.46 106.04 341.32 107.24C340.72 107.88 339.94 108.18 339.14 108.18C338.4 108.18 337.66 107.92 337.08 107.36C333.62 104.08 331.48 99.44 331.06 94.38C331 93.76 330.98 93.14 330.98 92.5C330.98 81.88 338.5 73.24 347.72 73.24C356 73.24 362.9 80.2 364.22 89.28Z" />
		<path id="Path 29" class="shp6" d="M341.44 75.69C342 76.53 341.29 77.98 339.86 78.92C338.43 79.86 336.82 79.93 336.27 79.09C335.71 78.24 336.42 76.79 337.85 75.85C339.28 74.92 340.89 74.84 341.44 75.69ZM337.56 81.38C337.89 81.88 337.67 82.6 337.08 82.98C336.49 83.37 335.75 83.29 335.42 82.79C335.09 82.29 335.31 81.58 335.9 81.19C336.49 80.8 337.23 80.89 337.56 81.38Z" />
		<path id="Path 30" class="shp4" d="M387.53 103.56C386.87 106.54 384.43 108.53 382.07 108.01C379.72 107.49 378.35 104.65 379 101.67C379.66 98.69 382.11 96.7 384.46 97.22C386.82 97.74 388.19 100.58 387.53 103.56Z" />
		<path id="Path 31" class="shp7" d="M406.5 82.74L400.58 83.66C399.6 77.6 395.24 73.04 390.04 73.04C384.12 73.04 379.3 78.98 379.3 86.3C379.3 86.52 379.3 86.72 379.34 86.94C379.46 90.84 380.98 94.42 383.52 96.82C384.72 97.96 384.78 99.86 383.64 101.06C383.04 101.68 382.26 102 381.46 102C380.72 102 379.98 101.72 379.4 101.16C375.88 97.84 373.72 93.04 373.36 87.86C373.32 87.34 373.3 86.82 373.3 86.3C373.3 75.68 380.82 67.04 390.04 67.04C398.22 67.04 405.06 73.82 406.5 82.74Z" />
		<path id="Path 32" class="shp6" d="M383.57 70.54C384.03 71.24 383.73 72.26 382.89 72.81C382.05 73.36 381 73.24 380.53 72.54C380.07 71.83 380.38 70.82 381.22 70.26C382.05 69.71 383.11 69.84 383.57 70.54Z" />
		<path id="Path 33" class="shp4" d="M429.85 97.36C429.19 100.34 426.75 102.34 424.39 101.82C422.04 101.3 420.67 98.46 421.33 95.48C421.99 92.5 424.43 90.5 426.78 91.03C429.14 91.55 430.51 94.38 429.85 97.36Z" />
		<path id="Path 34" class="shp7" d="M448.78 76.22L448.78 76.24L442.84 77.14C441.76 71.24 437.48 66.84 432.38 66.84C426.44 66.84 421.62 72.8 421.62 80.1C421.62 80.2 421.62 80.32 421.64 80.42C421.7 84.44 423.22 88.14 425.84 90.62C427.04 91.76 427.1 93.66 425.96 94.86C425.36 95.48 424.58 95.8 423.78 95.8C423.04 95.8 422.3 95.52 421.72 94.98C418.12 91.56 415.94 86.66 415.66 81.34C415.64 80.92 415.62 80.52 415.62 80.1C415.62 69.48 423.14 60.84 432.38 60.84C440.44 60.84 447.22 67.46 448.78 76.22Z" />
		<path id="Path 35" class="shp6" d="M424.58 64.59C424.97 65.18 424.61 66.1 423.77 66.65C422.94 67.19 421.95 67.16 421.56 66.57C421.18 65.98 421.54 65.06 422.37 64.51C423.2 63.96 424.19 64 424.58 64.59ZM427.29 64.82C427.49 65.12 427.31 65.59 426.88 65.87C426.45 66.15 425.95 66.14 425.75 65.83C425.55 65.53 425.73 65.06 426.16 64.78C426.59 64.5 427.09 64.52 427.29 64.82Z" />
		<path id="Path 36" class="shp8" d="M585.37 134.24C585.37 134.24 577.48 199.5 592.96 255.62C616.49 340.85 668.91 368.47 668.91 368.47L339.46 326.39C339.46 326.39 289.02 300.25 263.73 255.06C244.63 220.92 232.16 168.13 232.16 168.13L585.37 134.24Z" />
		<path id="Path 37" class="shp9" d="M580.31 129.38C580.31 129.38 564.21 200.13 573.89 274.08C583.57 348.03 625.37 407.29 625.37 407.29L283.02 369.65C283.02 369.65 242.69 336.84 227.1 281.8C211.51 226.77 227.1 163.28 227.1 163.28L580.31 129.38Z" />
		<path id="Path 38" class="shp10" d="M568.48 128.02L566.16 139.07L504.43 431.63L162.08 393.99L174.76 338.54L189.23 275.43L206.1 201.88L215.27 161.91L568.48 128.02Z" />
		<path id="Path 39" class="shp9" d="M336.25 305.6L174.76 338.54L189.23 275.43L325.35 286.74L336.25 305.6ZM568.48 128.02L566.16 139.07L206.1 201.88L215.27 161.91L568.48 128.02Z" />
		<path id="Path 40" fill-rule="evenodd" class="shp0" d="M473.31 274.13L461 330.71L492.59 332.1L492.51 333.92L460.6 332.53L448.07 390.09L446.29 389.7L458.75 332.44L403.89 330.04L391.83 385.56L390.05 385.17L402.04 329.96L350.08 327.68L338.44 381.26L336.65 380.88L348.23 327.6L291.43 325.11L279.95 376.56L278.17 376.17L289.57 325.03L236.98 322.72L226.25 372.24L224.47 371.85L235.13 322.64L211.52 321.6L211.6 319.77L235.52 320.83L245.69 273.87L221.86 273.84L221.87 272.01L246.09 272.04L257.14 221.02L233.12 221.81L233.06 219.98L257.54 219.18L266.68 176.98L268.47 177.37L259.43 219.11L313.6 217.33L323.56 172.66L325.35 173.06L315.49 217.27L372.61 215.39L382.87 168.17L384.65 168.56L374.49 215.32L427.31 213.58L438.09 163.99L439.87 164.37L429.2 213.52L485.03 211.68L496.37 159.57L498.15 159.96L486.91 211.62L516.64 210.64L516.7 212.47L486.51 213.46L473.71 272.3L502.83 272.33L502.83 274.16L473.31 274.13ZM402.43 328.14L414.18 274.06L361.74 274L350.47 325.86L402.43 328.14ZM348.62 325.78L359.87 274L302.85 273.93L291.83 323.29L348.62 325.78ZM289.98 323.21L300.97 273.93L247.56 273.87L237.37 320.91L289.98 323.21ZM247.96 272.04L301.38 272.1L313.19 219.17L259.03 220.96L247.96 272.04ZM315.08 219.11L303.25 272.1L360.27 272.17L372.21 217.23L315.08 219.11ZM374.09 217.17L362.14 272.17L414.58 272.23L426.91 215.43L374.09 217.17ZM428.8 215.37L416.45 272.23L471.84 272.3L484.63 213.53L428.8 215.37ZM471.44 274.13L416.05 274.06L404.29 328.23L459.14 330.63L471.44 274.13Z" />
		<path id="Path 41" class="shp6" d="M512.82 238.15C512.79 241.88 509.74 244.88 506.02 244.85C502.29 244.82 499.29 241.77 499.32 238.04C499.35 234.32 502.39 231.32 506.12 231.35C509.85 231.37 512.85 234.42 512.82 238.15ZM492.72 256.32C492.71 258.18 491.19 259.68 489.32 259.67C487.46 259.65 485.96 258.13 485.97 256.27C485.99 254.4 487.51 252.9 489.37 252.92C491.24 252.93 492.74 254.45 492.72 256.32ZM371.89 359.33C371.87 362.14 369.57 364.41 366.75 364.39C363.94 364.37 361.68 362.07 361.7 359.25C361.72 356.44 364.02 354.18 366.83 354.2C369.64 354.22 371.91 356.52 371.89 359.33ZM410.94 224.81C410.93 226.59 409.48 228.01 407.7 228C405.93 227.99 404.5 226.54 404.51 224.76C404.53 222.99 405.98 221.56 407.75 221.57C409.53 221.58 410.96 223.03 410.94 224.81Z" />
		<path id="Path 42" class="shp3" d="M361.05 292.06C358.27 286.47 352.41 283.57 346.47 282.73C340.08 281.83 331.16 282.56 326.37 287.38C324.56 289.2 326.35 292.21 328.8 291.63C331.24 291.05 333.45 289.89 335.9 289.27C338.36 288.66 340.83 288.38 343.36 288.49C347.54 288.66 352.35 290.12 355.01 293.55C360.3 300.39 356.36 310.92 351.83 317.05C346.86 323.78 339.23 328.53 331.21 330.68C322.34 333.05 309.8 332.4 306.2 322.18C301.99 310.27 313.12 301.05 320.25 293.38C320.44 293.18 320.2 292.81 319.94 292.98C310.72 298.99 301.09 308.54 302.02 320.54C302.98 332.99 316.05 338.19 327.01 336.87C337.54 335.6 347.86 330.35 354.78 322.24C361.52 314.32 365.99 302.04 361.05 292.06Z" />
		<path id="Path 43" class="shp11" d="M329.76 300.76L330.57 308.76C330.95 312.04 327.84 314.62 324.71 313.63L316.99 311.35C319.13 309.88 321.36 308.19 323.6 306.34C325.84 304.47 327.92 302.59 329.76 300.76Z" />
		<path id="Path 44" class="shp12" d="M326.86 272.17L328.45 287.97L329.76 300.76C327.92 302.59 325.84 304.47 323.6 306.34C321.36 308.19 319.13 309.88 316.99 311.35L304.65 307.71L289.83 303.34L307.05 286.39L326.86 272.17Z" />
		<path id="Path 45" class="shp13" d="M159.91 70.14L326.13 270.57C328.55 273.49 325.31 280.36 318.66 287.44C316.87 289.33 314.85 291.25 312.62 293.1C310.38 294.95 308.13 296.58 305.94 297.98C297.77 303.2 290.4 305.13 287.98 302.2L121.76 101.77L159.91 70.14Z" />
		<path id="Path 46" class="shp14" d="M136.48 89.23L307.94 295.98C299.77 301.2 292.4 303.13 289.98 300.2L123.76 99.77L136.48 89.23Z" />
		<path id="Path 47" class="shp0" d="M147.2 80.68L318.66 287.44C316.87 289.33 314.85 291.25 312.62 293.1C310.38 294.95 308.13 296.58 305.94 297.98L134.48 91.23L147.2 80.68Z" />
		<path id="Path 48" class="shp15" d="M159.91 70.14L326.13 270.57C328.55 273.49 325.31 280.36 318.66 287.44L147.2 80.68L159.91 70.14Z" />
		<path id="Path 49" class="shp6" d="M136.57 80.81C126.04 89.55 119.41 98.94 121.76 101.78L122.67 102.87L124.32 104.86L125.22 105.95C127.58 108.79 138.03 104.01 148.57 95.28C159.11 86.54 165.74 77.15 163.38 74.31L162.47 73.22L160.83 71.23L159.92 70.14C157.56 67.29 147.11 72.07 136.57 80.81Z" />
		<path id="Path 50" class="shp12" d="M154.04 83.51C154.02 83.55 153.98 83.59 153.94 83.63C153.58 84.07 153.2 84.51 152.82 84.93C152.42 85.39 152 85.85 151.58 86.29C150.96 86.95 150.34 87.57 149.7 88.19C148.46 89.41 147.1 90.63 145.68 91.81C137.82 98.33 129.68 102.21 124.74 102.21C123.36 102.21 122.24 101.91 121.44 101.27C121.44 101.27 114.5 97.49 112.84 88.71L130.78 73.83L148.72 58.95C150.46 59.63 151.94 60.49 153.2 61.45C157.96 65.01 159.48 69.71 159.48 69.71L159.46 69.73C160.96 72.51 158.74 77.79 154.04 83.51Z" />
		<path id="Path 51" class="shp16" d="M154.04 83.51C154.02 83.55 153.98 83.59 153.94 83.63C153.58 84.07 153.2 84.51 152.82 84.93C152.42 85.39 152 85.85 151.58 86.29C150.96 86.95 150.34 87.57 149.7 88.19C142.78 94.85 135.58 98.65 135.02 98.93C134.28 99.31 133.5 99.49 132.72 99.49C130.92 99.49 129.18 98.51 128.28 96.79C127.02 94.33 127.98 91.33 130.42 90.05C130.54 90.01 135.74 87.25 141.08 82.55C146.44 77.85 151.94 71.19 152.64 63.33C152.7 62.65 152.9 62.01 153.2 61.45C157.96 65.01 159.48 69.71 159.48 69.71L159.46 69.73C160.96 72.51 158.74 77.79 154.04 83.51Z" />
		<path id="Path 52" class="shp12" d="M147.58 67.15C145.38 71.15 141.34 75.85 136.08 80.21C127.06 87.69 117.64 91.49 113.82 89.45L113.8 89.47C113.8 89.47 113.7 89.41 113.5 89.29C113.48 89.29 113.48 89.29 113.48 89.27C111.98 88.37 105.76 84.33 101.68 77.51L101.72 77.49C99.28 73.47 105.22 63.75 115.4 55.29C125.6 46.85 136.26 42.81 139.76 45.93L139.8 45.91C140.62 46.63 141.38 47.39 142.08 48.17C146.46 52.99 148.64 58.27 149.16 59.67C149.16 59.69 149.18 59.69 149.18 59.69C149.26 59.91 149.3 60.03 149.3 60.03L149.28 60.05C149.82 61.79 149.18 64.27 147.58 67.15Z" />
		<path id="Path 53" class="shp3" d="M136.04 48.8C138.44 51.69 132.91 60.24 123.68 67.89C114.46 75.54 105.04 79.39 102.64 76.5C100.24 73.61 105.78 65.06 115 57.41C124.22 49.77 133.64 45.91 136.04 48.8Z" />
		<path id="Path 54" class="shp16" d="M147.58 67.15C140.64 78.11 129.02 85.01 128.32 85.43C127.44 85.95 126.48 86.19 125.54 86.19C123.66 86.19 121.8 85.21 120.78 83.45C119.26 80.83 120.14 77.47 122.76 75.95C128.1 72.79 141.72 62.25 141.72 50.83L141.72 50.31C141.7 49.55 141.82 48.83 142.08 48.17C146.46 52.99 148.64 58.27 149.16 59.67C149.16 59.69 149.18 59.69 149.18 59.69C149.26 59.91 149.3 60.03 149.3 60.03L149.28 60.05C149.82 61.79 149.18 64.27 147.58 67.15Z" />
		<path id="Path 55" class="shp2" d="M452.81 376.42L588.04 366.61C588.04 366.61 573.15 452.78 548.95 509.01L503.01 536.95L397.59 529.71C397.59 529.71 432.69 493.06 452.81 376.42Z" />
		<path id="Path 56" class="shp17" d="M503.01 536.95C503.01 536.95 514.66 520.47 507.15 506.64L548.95 509.01L503.01 536.95Z" />
		<path id="Path 57" class="shp3" d="M545.73 407.71C542.16 410.28 539.02 413.57 535.86 416.62C532.55 419.81 529.38 423.16 526.25 426.52C520.22 433.02 514.61 439.89 509.3 446.98C503.94 454.13 498.73 461.39 494.16 469.07C491.81 473.03 489.48 477.01 487.2 481C486.69 481.89 486.21 482.81 485.74 483.73C485.57 482.56 485.39 481.39 485.2 480.24C484.44 475.57 483.69 470.88 482.43 466.31C479.94 457.33 477.18 447.43 471.84 439.67C470.18 437.25 465.92 438.65 466.87 441.76C468.19 446.1 470.1 450.3 471.68 454.56C473.25 458.82 474.65 463.27 475.73 467.68C476.82 472.12 477.93 476.58 478.67 481.09C479.42 485.64 479.64 490.23 480.24 494.79C480.7 498.26 485.25 499.23 486.51 495.63C487.99 491.4 490.76 487.28 492.88 483.33C494.93 479.51 497.1 475.8 499.4 472.14C503.99 464.83 508.58 457.51 513.62 450.51C518.7 443.44 524.08 436.6 529.59 429.87C532.34 426.52 535.17 423.26 538.04 420.02C541.08 416.59 544.48 413.34 547.28 409.73C548.08 408.7 547.03 406.78 545.73 407.71Z" />
		<path id="Path 58" class="shp6" d="M541.14 387.23C542.97 390.11 541.66 394.22 538.22 396.4C534.78 398.59 530.5 398.03 528.67 395.15C526.84 392.27 528.15 388.16 531.59 385.97C535.04 383.78 539.31 384.35 541.14 387.23ZM520.16 408.39C520.92 409.59 520.38 411.3 518.95 412.21C517.52 413.12 515.74 412.89 514.98 411.69C514.22 410.49 514.76 408.78 516.19 407.87C517.62 406.96 519.4 407.19 520.16 408.39Z" />
	</g>
</svg>