<svg width="354" height="217" viewBox="0 0 354 217" fill="none" xmlns="http://www.w3.org/2000/svg">
<g clip-path="url(#clip0)">
<path d="M351.59 170.906H1.41908C1.17533 170.906 0.941568 170.809 0.769207 170.637C0.596845 170.465 0.5 170.231 0.5 169.987C0.5 169.744 0.596845 169.51 0.769207 169.338C0.941568 169.165 1.17533 169.069 1.41908 169.069H351.59C351.834 169.069 352.068 169.165 352.24 169.338C352.412 169.51 352.509 169.744 352.509 169.987C352.509 170.231 352.412 170.465 352.24 170.637C352.068 170.809 351.834 170.906 351.59 170.906Z" fill="#3F3D56"/>
<path d="M183.452 50.5711C197.157 50.5711 208.267 39.467 208.267 25.7693C208.267 12.0717 197.157 0.967514 183.452 0.967514C169.747 0.967514 158.637 12.0717 158.637 25.7693C158.637 39.467 169.747 50.5711 183.452 50.5711Z" fill="#2F2E41"/>
<path d="M159.874 184.984L159.217 173.742L202.29 165.856L203.261 182.45L159.874 184.984Z" fill="#FFB8B8"/>
<path d="M161.961 165.524L163.229 187.206L149.57 188.004L147.503 152.67C149.297 152.566 151.094 152.815 152.791 153.404C154.488 153.993 156.053 154.911 157.395 156.105C158.738 157.298 159.832 158.744 160.615 160.36C161.399 161.977 161.856 163.731 161.961 165.524Z" fill="#2F2E41"/>
<path d="M178.608 184.881L171.453 193.581L134.473 170.14L145.032 157.3L178.608 184.881Z" fill="#FFB8B8"/>
<path d="M163.856 197.753L177.654 180.974L188.224 189.657L165.738 217C164.35 215.86 163.2 214.457 162.354 212.873C161.508 211.289 160.983 209.553 160.808 207.766C160.634 205.979 160.813 204.174 161.336 202.456C161.859 200.738 162.715 199.14 163.856 197.753Z" fill="#2F2E41"/>
<path d="M158.019 144.423L153.129 167.46C153.017 167.99 153.023 168.539 153.148 169.067C153.272 169.595 153.512 170.088 153.851 170.512C154.189 170.936 154.616 171.28 155.103 171.52C155.59 171.759 156.124 171.888 156.666 171.896L204.732 172.671C205.274 172.68 205.811 172.569 206.305 172.346C206.799 172.123 207.237 171.794 207.589 171.382C207.941 170.97 208.197 170.485 208.339 169.962C208.481 169.44 208.506 168.892 208.412 168.359L204.208 144.547C204.058 143.696 203.612 142.926 202.95 142.371C202.288 141.815 201.452 141.511 200.587 141.511H161.615C160.772 141.511 159.955 141.8 159.301 142.33C158.646 142.86 158.193 143.599 158.019 144.423Z" fill="#2F2E41"/>
<path d="M165.989 152.534C165.989 152.534 119.116 123.139 109.925 138.755C105.33 146.563 107.628 154.142 111.074 159.768C114.273 164.891 118.864 168.998 124.311 171.61L162.313 190.196L176.099 175.499L166.909 167.231L165.989 152.534Z" fill="#2F2E41"/>
<path d="M189.886 147.941C189.886 147.941 250.545 130.488 238.597 163.557C226.649 196.626 181.614 183.766 181.614 183.766L177.018 169.987L192.643 158.964L189.886 147.941Z" fill="#2F2E41"/>
<path d="M183.763 53.9942C196.23 53.9942 206.337 43.8931 206.337 31.4327C206.337 18.9724 196.23 8.87134 183.763 8.87134C171.296 8.87134 161.189 18.9724 161.189 31.4327C161.189 43.8931 171.296 53.9942 183.763 53.9942Z" fill="#FFB8B8"/>
<path d="M184.946 151.587C175.566 151.445 166.234 150.216 157.137 147.925L156.868 147.852L144.272 89.9394C143.139 84.8505 143.909 79.5229 146.438 74.963C148.966 70.4031 153.078 66.9264 157.996 65.1896C173.189 59.7416 189.747 59.4112 205.145 64.2486H205.145C210.312 65.9126 214.661 69.4625 217.324 74.1898C219.988 78.9172 220.77 84.4744 219.515 89.7528L205.445 147.803L205.247 147.897C199.4 150.666 192.089 151.587 184.946 151.587Z" fill="#CCCCCC"/>
<path d="M168.025 156.086C168.483 154.815 169.214 153.66 170.166 152.702C171.118 151.744 172.269 151.007 173.538 150.541C174.806 150.076 176.161 149.895 177.507 150.009C178.854 150.124 180.158 150.533 181.329 151.206L206.132 129.689L208.376 146.598L184.479 164.439C183.217 166.331 181.305 167.694 179.104 168.27C176.904 168.847 174.568 168.596 172.54 167.567C170.512 166.537 168.932 164.8 168.1 162.684C167.268 160.568 167.241 158.22 168.025 156.086Z" fill="#FFB8B8"/>
<path d="M191.681 160.779C191.277 160.779 190.876 160.72 190.489 160.604C189.862 160.421 189.287 160.091 188.813 159.641C188.34 159.191 187.981 158.634 187.767 158.017L184.773 149.54C184.492 148.756 184.457 147.906 184.671 147.102C184.884 146.298 185.337 145.578 185.97 145.036L219.763 124.759L206.442 65.3627L206.781 65.2811C206.919 65.247 220.567 62.1423 226.16 77.0486C230.077 87.4886 244.571 110.189 243.548 125.528C243.354 128.597 242.131 131.51 240.076 133.798C238.021 136.086 235.255 137.615 232.223 138.138L194.184 159.92C193.468 160.476 192.587 160.778 191.681 160.779Z" fill="#CCCCCC"/>
<path d="M195.471 154.071C195.013 152.8 194.283 151.645 193.33 150.687C192.378 149.729 191.227 148.992 189.959 148.527C188.69 148.061 187.335 147.88 185.989 147.994C184.643 148.109 183.338 148.518 182.167 149.191L157.364 127.673L155.12 144.583L179.017 162.424C180.279 164.316 182.192 165.679 184.392 166.255C186.593 166.832 188.928 166.581 190.956 165.552C192.984 164.522 194.564 162.785 195.396 160.669C196.228 158.552 196.255 156.205 195.471 154.071Z" fill="#FFB8B8"/>
<path d="M174.304 160.779C173.398 160.778 172.517 160.476 171.801 159.92L131.004 139.975C127.973 139.452 125.207 137.923 123.152 135.635C121.097 133.347 119.874 130.434 119.679 127.365C118.657 112.026 135.908 87.4886 139.825 77.0486C145.417 62.1423 159.066 65.2461 159.204 65.2811L159.543 65.3627L143.464 126.597L180.015 145.036C180.648 145.578 181.101 146.298 181.314 147.102C181.528 147.906 181.492 148.756 181.212 149.54L178.218 158.017C178.004 158.634 177.645 159.191 177.172 159.641C176.698 160.091 176.123 160.421 175.496 160.604C175.109 160.72 174.708 160.779 174.304 160.779Z" fill="#CCCCCC"/>
<path d="M222.973 169.987H141.174C139.469 169.985 137.833 169.307 136.627 168.102C135.421 166.896 134.743 165.262 134.741 163.557V118.546C134.743 116.842 135.421 115.207 136.627 114.002C137.833 112.796 139.469 112.118 141.174 112.116H222.973C224.678 112.118 226.314 112.796 227.52 114.002C228.726 115.207 229.404 116.842 229.406 118.546V163.557C229.404 165.262 228.726 166.896 227.52 168.102C226.314 169.307 224.678 169.985 222.973 169.987Z" fill="white"/>
<path d="M182.073 146.563C185.119 146.563 187.588 144.096 187.588 141.052C187.588 138.008 185.119 135.54 182.073 135.54C179.028 135.54 176.559 138.008 176.559 141.052C176.559 144.096 179.028 146.563 182.073 146.563Z" fill="#6C63FF"/>
<path d="M160.963 30.5145C159.626 27.1228 161.821 23.0809 165.077 21.4379C168.333 19.7949 172.263 20.1074 175.746 21.1902C178.673 22.1002 181.416 23.5105 184.272 24.6243C187.087 25.8712 190.163 26.4187 193.236 26.2198C196.282 25.876 199.314 24.1688 200.56 21.3697C201.852 18.4682 200.973 14.9275 198.984 12.4513C196.867 10.0575 194.127 8.29745 191.069 7.36711C184.353 5.00228 176.595 4.93314 170.36 8.37067C164.125 11.8082 159.887 19.1275 161.176 26.127" fill="#2F2E41"/>
<path d="M30.5196 160.175C31.6551 147.953 34.7912 136 39.8028 124.794C41.1996 121.675 42.7369 118.625 44.4149 115.644C44.499 115.488 44.5193 115.306 44.4714 115.135C44.4236 114.965 44.3112 114.819 44.1582 114.73C44.0052 114.641 43.8234 114.614 43.6512 114.656C43.479 114.698 43.3298 114.805 43.2352 114.955C37.1331 125.814 32.8583 137.601 30.5814 149.845C29.9481 153.264 29.4721 156.708 29.1534 160.175C29.0724 161.05 30.4391 161.044 30.5196 160.175Z" fill="#E6E6E6"/>
<path d="M47.7238 117.834C52.5025 117.834 56.3764 113.962 56.3764 109.186C56.3764 104.41 52.5025 100.538 47.7238 100.538C42.9451 100.538 39.0712 104.41 39.0712 109.186C39.0712 113.962 42.9451 117.834 47.7238 117.834Z" fill="#6C63FF"/>
<path d="M31.4047 160.405C32.1413 152.476 34.1759 144.722 37.4271 137.452C38.3333 135.428 39.3306 133.45 40.4192 131.516C40.4738 131.414 40.4869 131.296 40.4558 131.185C40.4248 131.075 40.3519 130.981 40.2526 130.923C40.1534 130.865 40.0354 130.847 39.9237 130.875C39.812 130.902 39.7153 130.971 39.6539 131.069C35.6952 138.113 32.9219 145.76 31.4448 153.703C31.0339 155.922 30.7251 158.155 30.5184 160.405C30.4658 160.972 31.3525 160.969 31.4047 160.405H31.4047Z" fill="#E6E6E6"/>
<path d="M42.5659 132.936C45.666 132.936 48.1792 130.424 48.1792 127.326C48.1792 124.227 45.666 121.716 42.5659 121.716C39.4657 121.716 36.9525 124.227 36.9525 127.326C36.9525 130.424 39.4657 132.936 42.5659 132.936Z" fill="#6C63FF"/>
<path d="M30.286 159.875C25.9873 153.171 22.8195 145.806 20.9091 138.075C20.3786 135.923 19.9473 133.749 19.6154 131.555C19.5962 131.442 19.5338 131.34 19.4412 131.272C19.3486 131.204 19.2331 131.174 19.1191 131.19C19.0051 131.205 18.9015 131.264 18.8302 131.354C18.7589 131.444 18.7254 131.559 18.7368 131.673C19.9506 139.661 22.4697 147.395 26.1934 154.567C27.2345 156.568 28.3658 158.519 29.5872 160.42C29.8949 160.9 30.5918 160.352 30.286 159.875Z" fill="#E6E6E6"/>
<path d="M18.7297 132.542C21.8299 132.542 24.3431 130.031 24.3431 126.932C24.3431 123.834 21.8299 121.322 18.7297 121.322C15.6295 121.322 13.1163 123.834 13.1163 126.932C13.1163 130.031 15.6295 132.542 18.7297 132.542Z" fill="#6C63FF"/>
<path d="M13.0533 164.839V153.816C13.0546 152.72 13.4907 151.67 14.2661 150.895C15.0415 150.12 16.0927 149.684 17.1892 149.683H42.9236C44.0201 149.684 45.0713 150.12 45.8467 150.895C46.6221 151.67 47.0582 152.72 47.0594 153.816V164.839C47.0582 165.935 46.6221 166.986 45.8467 167.761C45.0713 168.536 44.0201 168.972 42.9236 168.973H17.1892C16.0927 168.972 15.0415 168.536 14.2661 167.761C13.4907 166.986 13.0546 165.935 13.0533 164.839Z" fill="#F2F2F2"/>
<path d="M289.468 177.704C289.468 183.746 284.568 186.492 278.523 186.492C272.478 186.492 267.578 183.746 267.578 177.704C267.578 171.662 270.01 164.613 278.523 167.044C287.036 163.398 289.468 171.662 289.468 177.704Z" fill="#FF6584"/>
<path d="M277.99 169.874C277.564 169.875 277.153 169.721 276.833 169.44C276.513 169.159 276.306 168.772 276.252 168.35C275.889 165.336 273.892 159.432 273.05 157.035L273.05 157.034C272.964 156.795 272.938 156.54 272.974 156.289C273.009 156.039 273.104 155.8 273.252 155.595C273.393 155.411 273.572 155.259 273.776 155.149C273.98 155.039 274.205 154.974 274.436 154.957C274.668 154.94 274.9 154.973 275.118 155.052C275.335 155.132 275.534 155.256 275.7 155.418C275.848 155.574 275.963 155.758 276.037 155.96C276.111 156.161 276.143 156.376 276.13 156.591C275.965 159.668 278.21 164.642 279.563 167.333C279.691 167.586 279.755 167.867 279.75 168.151C279.745 168.435 279.671 168.714 279.534 168.963C279.398 169.212 279.203 169.424 278.966 169.581C278.729 169.738 278.458 169.835 278.175 169.864C278.114 169.871 278.052 169.874 277.99 169.874Z" fill="#3F3D56"/>
<path d="M286.089 163.085C289.888 159.977 286.907 153.616 282.152 154.837C281.512 154.99 280.922 155.304 280.439 155.75C277.522 158.504 277.07 165.551 277.07 165.551C277.07 165.551 282.221 166.248 286.089 163.085Z" fill="#3F3D56"/>
</g>
<defs>
<clipPath id="clip0">
<rect width="353" height="217" fill="white" transform="translate(0.5)"/>
</clipPath>
</defs>
</svg>
